<svg width="47" height="44" viewBox="0 0 47 44" fill="none" xmlns="http://www.w3.org/2000/svg">
<path fill-rule="evenodd" clip-rule="evenodd" d="M39.5654 5.61145C39.5127 9.12987 41.1833 10.7894 41.1833 10.7894C41.1833 10.7894 42.9319 8.87796 42.9828 5.44964C43.0347 2.01527 41.113 0 41.113 0C41.113 0 39.6167 2.0925 39.5654 5.61145ZM36.4154 13.9779C37.1061 17.2471 39.1385 18.3316 39.1385 18.3316C39.1385 18.3316 40.435 16.0228 39.7282 12.6672C39.0183 9.31248 37.1951 7.95073 37.1951 7.95073C37.1951 7.95073 35.7261 10.7093 36.4154 13.9779ZM43.2968 12.3477C41.9539 15.2367 42.7307 18.0172 42.7307 18.0172C42.7307 18.0172 44.8886 17.8805 46.1946 15.061C47.5047 12.2431 46.6538 8.96158 46.6538 8.96158C46.6538 8.96158 44.6388 9.45601 43.2968 12.3477ZM38.2668 21.937C38.6764 25.4028 37.1912 27.4413 37.1912 27.4413C37.1912 27.4413 35.269 25.9664 34.8691 22.591C34.4739 19.2132 36.1676 16.7651 36.1676 16.7651C36.1676 16.7651 37.8569 18.4732 38.2668 21.937ZM34.8906 27.9898C34.6992 24.4774 33.126 22.5391 33.126 22.5391C33.126 22.5391 31.2857 24.7381 31.4721 28.1577C31.6586 31.5773 33.4758 33.3172 33.4758 33.3172C33.4758 33.3172 35.081 31.4997 34.8906 27.9898ZM28.6105 38.7869C28.6105 38.7869 27.2029 36.3332 27.6799 32.974C28.1582 29.6153 30.3425 28.3043 30.3425 28.3043C30.3425 28.3043 31.4744 30.8443 30.9859 34.2919C30.4961 37.739 28.6105 38.7869 28.6105 38.7869ZM41.4724 25.0397C41.4724 25.0397 41.2788 22.0367 43.1252 19.8682C44.9759 17.6993 46.9956 18.1171 46.9956 18.1171C46.9956 18.1171 47.1657 21.636 45.3621 23.7503C43.5582 25.8666 41.4724 25.0397 41.4724 25.0397ZM41.0357 27.1347C38.9134 28.637 38.6585 31.6311 38.6585 31.6311C38.6585 31.6311 40.5707 33.1302 42.6392 31.6712C44.7077 30.2123 45.0633 26.7201 45.0633 26.7201C45.0633 26.7201 43.1586 25.637 41.0357 27.1347ZM35.2687 36.6564C35.2687 36.6564 36.1138 33.9139 38.4368 33.4498C40.7627 32.9849 42.356 34.8837 42.356 34.8837C42.356 34.8837 41.3139 38.0511 39.0504 38.5044C36.7852 38.9591 35.2687 36.6564 35.2687 36.6564ZM37.589 40.8531C37.589 40.8531 36.1537 38.6824 33.8117 38.7236C31.4706 38.7674 30.4176 41.3381 30.4176 41.3381C30.4176 41.3381 31.7386 43.8976 34.0213 43.8585C36.3058 43.8094 37.589 40.8531 37.589 40.8531ZM40.6048 12.6678L41.7043 12.3407C41.7267 12.5205 43.8559 30.431 26.6319 42.8178L26.154 41.3052C42.549 29.5096 40.6929 13.3474 40.6048 12.6678ZM3.70349 12.489C5.04645 15.3781 4.26962 18.1585 4.26962 18.1585C4.26962 18.1585 2.11175 18.0219 0.805698 15.2023C-0.504382 12.3844 0.346535 9.10294 0.346535 9.10294C0.346535 9.10294 2.36151 9.59737 3.70349 12.489ZM7.86154 18.4729C7.86154 18.4729 9.894 17.3885 10.5847 14.1193C11.274 10.8506 9.80493 8.09209 9.80493 8.09209C9.80493 8.09209 7.98174 9.45383 7.27189 12.8085C6.56508 16.1642 7.86154 18.4729 7.86154 18.4729ZM9.80886 27.5827C9.80886 27.5827 8.32363 25.5441 8.73324 22.0783C9.14322 18.6146 10.8325 16.9065 10.8325 16.9065C10.8325 16.9065 12.5262 19.3545 12.131 22.7323C11.7311 26.1077 9.80886 27.5827 9.80886 27.5827ZM13.8745 22.6804C13.8745 22.6804 12.3012 24.6188 12.1099 28.1312C11.9195 31.641 13.5247 33.4585 13.5247 33.4585C13.5247 33.4585 15.3419 31.7186 15.5283 28.299C15.7148 24.8794 13.8745 22.6804 13.8745 22.6804ZM19.3202 33.1153C19.7972 36.4746 18.3896 38.9282 18.3896 38.9282C18.3896 38.9282 16.504 37.8803 16.0142 34.4333C15.5257 30.9857 16.6576 28.4457 16.6576 28.4457C16.6576 28.4457 18.8419 29.7566 19.3202 33.1153ZM5.8165 10.9308C5.8165 10.9308 7.48713 9.27123 7.43447 5.75281C7.38315 2.23385 5.88681 0.141358 5.88681 0.141358C5.88681 0.141358 3.9651 2.15663 4.01708 5.591C4.06797 9.01932 5.8165 10.9308 5.8165 10.9308ZM3.87471 20.0093C5.72106 22.1778 5.52753 25.1808 5.52753 25.1808C5.52753 25.1808 3.44172 26.0077 1.63779 23.8914C-0.165779 21.7772 0.00428094 18.2582 0.00428094 18.2582C0.00428094 18.2582 2.02397 17.8404 3.87471 20.0093ZM8.34162 31.7725C8.34162 31.7725 8.08677 28.7783 5.96448 27.2761C3.84158 25.7784 1.93681 26.8614 1.93681 26.8614C1.93681 26.8614 2.29241 30.3536 4.36093 31.8126C6.42945 33.2715 8.34162 31.7725 8.34162 31.7725ZM8.56371 33.5912C10.8866 34.0552 11.7318 36.7978 11.7318 36.7978C11.7318 36.7978 10.2153 39.1005 7.95006 38.6458C5.68657 38.1925 4.6445 35.025 4.6445 35.025C4.6445 35.025 6.23774 33.1262 8.56371 33.5912ZM13.1884 38.865C10.8464 38.8237 9.41114 40.9944 9.41114 40.9944C9.41114 40.9944 10.6943 43.9507 12.9788 43.9999C15.2615 44.0389 16.5825 41.4794 16.5825 41.4794C16.5825 41.4794 15.5295 38.9088 13.1884 38.865ZM5.29601 12.482L6.39546 12.8092C6.30737 13.4888 4.4513 29.651 20.8463 41.4466L20.3684 42.9592C3.14435 30.5724 5.27361 12.6618 5.29601 12.482Z" fill="url(#paint0_linear)"/>
<defs>
<linearGradient id="paint0_linear" x1="24.1072" y1="0" x2="24.1072" y2="44.0003" gradientUnits="userSpaceOnUse">
<stop stop-color="#C4C4C4"/>
<stop offset="0.983875" stop-color="#F6F7F9"/>
<stop offset="0.983975" stop-color="#FAFAFA"/>
</linearGradient>
</defs>
</svg>
